<?xml version="1.0" encoding="UTF-8"?>
<svg xmlns="http://www.w3.org/2000/svg" xmlns:xlink="http://www.w3.org/1999/xlink" width="20px" height="20px" viewBox="0 0 20 20" version="1.1">
<g id="surface1">
<path style=" stroke:none;fill-rule:nonzero;fill:rgb(0%,0%,0%);fill-opacity:1;" d="M 2.832031 1.082031 C 2.667969 1.667969 2.582031 6.082031 2.667969 10.917969 L 2.917969 19.582031 L 17.082031 19.582031 L 17.332031 12.167969 C 17.582031 5.082031 17.5 4.667969 15.332031 2.332031 C 13.332031 0.332031 12.417969 0 8.167969 0 C 4.917969 0 3.167969 0.332031 2.832031 1.082031 Z M 12.5 2.917969 C 12.5 4.582031 12.917969 5 14.582031 5 C 16.667969 5 16.667969 5.082031 16.667969 12.082031 L 16.667969 19.167969 L 3.332031 19.167969 L 3.332031 0.832031 L 7.917969 0.832031 C 12.25 0.832031 12.5 0.917969 12.5 2.917969 Z M 12.5 2.917969 "/>
</g>
</svg>
